<svg viewBox="0 0 32 32" fill="none" xmlns="http://www.w3.org/2000/svg" class="w-full h-full">
  <circle cx="16" cy="16" r="15" fill="url(#gradient)" stroke="url(#gradientStroke)" stroke-width="1"></circle>
  <circle cx="16" cy="16" r="13" fill="none" stroke="white" stroke-width="0.5" stroke-opacity="0.2"></circle>
  <rect x="15.5" y="8" width="1" height="16" fill="white" fill-opacity="0.9" rx="0.5"></rect>
  <rect x="14.5" y="18" width="3" height="0.8" fill="#f97316" fill-opacity="0.9" rx="0.4"></rect>
  <rect x="14.5" y="19.2" width="3" height="0.8" fill="#f97316" fill-opacity="0.9" rx="0.4"></rect>
  <rect x="14.5" y="20.4" width="3" height="0.8" fill="#f97316" fill-opacity="0.9" rx="0.4"></rect>
  <rect x="15" y="6" width="2" height="2" fill="white" fill-opacity="0.95" rx="1"></rect>
  <path d="M15 6 L16 4 L17 6 L16 8 Z" fill="white" fill-opacity="0.95"></path>
  <path d="M16 4 L18 2 L20 4 L18 6 Z" fill="white" fill-opacity="0.98"></path>
  <path d="M18 2 L19 1 L20 2 L18 4 Z" fill="white" fill-opacity="1"></path>
  <path d="M6 10 L12 10 M6 12 L11 12 M6 14 L10 14 M6 16 L9 16" stroke="white" stroke-width="0.5" stroke-opacity="0.6" stroke-linecap="round"></path>
  <defs>
    <linearGradient id="gradient" x1="0%" y1="0%" x2="100%" y2="100%">
      <stop offset="0%" stop-color="#f87171"></stop>
      <stop offset="50%" stop-color="#ef4444"></stop>
      <stop offset="100%" stop-color="#dc2626"></stop>
    </linearGradient>
    <linearGradient id="gradientStroke" x1="0%" y1="0%" x2="100%" y2="100%">
      <stop offset="0%" stop-color="#fca5a5"></stop>
      <stop offset="50%" stop-color="#f87171"></stop>
      <stop offset="100%" stop-color="#b91c1c"></stop>
    </linearGradient>
    <filter id="shadow" x="-50%" y="-50%" width="200%" height="200%">
      <feDropShadow dx="0" dy="2" stdDeviation="2" flood-color="#000000" flood-opacity="0.1"></feDropShadow>
    </filter>
  </defs>
</svg>

